# xmcd
#
# Track frame offsets: 
#        150
#        23789
#        40143
#        78600
#        120376
#        150556
#        170788
#        200544
#        212549
#        236897
#        263549
#
# Disc length: 4052 seconds
#
# Revision: 0
# Processed by: cddbd v1.5.2PL0 Copyright (c) Steve Scherf et al.
# Submitted via: ExactAudioCopy v0.99pb5
#
DISCID=8d0fd20b
DTITLE=David Grisman and Martin Taylor - David Grisman and Martin Tayl
DTITLE=or - 11_08_1996 - Luther Burbank Center - Santa Rosa, CA
DYEAR=1996
DGENRE=Acoustic
TTITLE0=Blue Moon
TTITLE1=Czardas
TTITLE2=Stompin at the Savoy
TTITLE3=Minor Swing
TTITLE4=It Happened In Monterey
TTITLE5=Fiddle tune medley (DG solo)
TTITLE6=Georgia On My Mind (MT solo)
TTITLE7=Teasing the Frets (g duet)
TTITLE8=Mood Indigo
TTITLE9=El Cubamchero
TTITLE10=Manoir De Mes Reves (Djangos Castle)-Daphne
EXTD=
EXTT0=
EXTT1=
EXTT2=
EXTT3=
EXTT4=
EXTT5=
EXTT6=
EXTT7=
EXTT8=
EXTT9=
EXTT10=
PLAYORDER=
